REM DIRINDEX 1\4,1\2\5,1\2\6,1\3\7,1\3\8
REM DIRNAME cjc124,folder01,folder02,folder03,folder04,folder05,folder06,folder07
TITLE ""
FILE "100_Day50_Check3_Sentences.mp3" MP3
  TRACK 01 AUDIO
    TITLE "0:"
    INDEX 01 00:00:00
  TRACK 02 AUDIO
    TITLE "4:cjc124_3270"
    INDEX 01 00:00:25
  TRACK 03 AUDIO
    TITLE "0:"
    INDEX 01 00:02:00
  TRACK 04 AUDIO
    TITLE "7:cjc124_3271"
    INDEX 01 00:02:49
  TRACK 05 AUDIO
    TITLE "0:"
    INDEX 01 00:06:43
  TRACK 06 AUDIO
    TITLE "8:cjc124_3272"
    INDEX 01 00:06:59
  TRACK 07 AUDIO
    TITLE "0:"
    INDEX 01 00:10:41
  TRACK 08 AUDIO
    TITLE "7:cjc124_3273"
    INDEX 01 00:11:03
  TRACK 09 AUDIO
    TITLE "0:"
    INDEX 01 00:14:13
  TRACK 10 AUDIO
    TITLE "8:cjc124_3274"
    INDEX 01 00:14:25
  TRACK 11 AUDIO
    TITLE "0:"
    INDEX 01 00:16:59
  TRACK 12 AUDIO
    TITLE "7:cjc124_3275"
    INDEX 01 00:17:21
  TRACK 13 AUDIO
    TITLE "0:"
    INDEX 01 00:19:52
  TRACK 14 AUDIO
    TITLE "8:cjc124_3276"
    INDEX 01 00:19:69
  TRACK 15 AUDIO
    TITLE "0:"
    INDEX 01 00:23:10
  TRACK 16 AUDIO
    TITLE "7:cjc124_3277"
    INDEX 01 00:23:46
  TRACK 17 AUDIO
    TITLE "0:"
    INDEX 01 00:26:48
  TRACK 18 AUDIO
    TITLE "8:cjc124_3278"
    INDEX 01 00:27:00
  TRACK 19 AUDIO
    TITLE "0:"
    INDEX 01 00:29:60
  TRACK 20 AUDIO
    TITLE "7:cjc124_3279"
    INDEX 01 00:30:22
  TRACK 21 AUDIO
    TITLE "0:"
    INDEX 01 00:33:24
  TRACK 22 AUDIO
    TITLE "8:cjc124_3280"
    INDEX 01 00:33:40
  TRACK 23 AUDIO
    TITLE "0:"
    INDEX 01 00:36:13
  TRACK 24 AUDIO
    TITLE "7:cjc124_3281"
    INDEX 01 00:36:52
  TRACK 25 AUDIO
    TITLE "0:"
    INDEX 01 00:38:71
  TRACK 26 AUDIO
    TITLE "8:cjc124_3282"
    INDEX 01 00:39:11
  TRACK 27 AUDIO
    TITLE "0:"
    INDEX 01 00:41:26
  TRACK 28 AUDIO
    TITLE "7:cjc124_3283"
    INDEX 01 00:41:65
  TRACK 29 AUDIO
    TITLE "0:"
    INDEX 01 00:47:21
  TRACK 30 AUDIO
    TITLE "8:cjc124_3284"
    INDEX 01 00:47:38
  TRACK 31 AUDIO
    TITLE "0:"
    INDEX 01 00:51:30
  TRACK 32 AUDIO
    TITLE "7:cjc124_3285"
    INDEX 01 00:51:67
  TRACK 33 AUDIO
    TITLE "0:"
    INDEX 01 00:56:04
  TRACK 34 AUDIO
    TITLE "8:cjc124_3286"
    INDEX 01 00:56:20
  TRACK 35 AUDIO
    TITLE "0:"
    INDEX 01 00:59:61
  TRACK 36 AUDIO
    TITLE "7:cjc124_3287"
    INDEX 01 01:00:21
  TRACK 37 AUDIO
    TITLE "0:"
    INDEX 01 01:04:72
  TRACK 38 AUDIO
    TITLE "8:cjc124_3288"
    INDEX 01 01:05:13
  TRACK 39 AUDIO
    TITLE "0:"
    INDEX 01 01:09:32
  TRACK 40 AUDIO
    TITLE "7:cjc124_3289"
    INDEX 01 01:09:69
  TRACK 41 AUDIO
    TITLE "0:"
    INDEX 01 01:13:51
  TRACK 42 AUDIO
    TITLE "8:cjc124_3290"
    INDEX 01 01:13:67
  TRACK 43 AUDIO
    TITLE "0:"
    INDEX 01 01:16:67
  TRACK 44 AUDIO
    TITLE "7:cjc124_3291"
    INDEX 01 01:17:33
  TRACK 45 AUDIO
    TITLE "0:"
    INDEX 01 01:20:34
  TRACK 46 AUDIO
    TITLE "8:cjc124_3292"
    INDEX 01 01:20:49
  TRACK 47 AUDIO
    TITLE "0:"
    INDEX 01 01:24:18
  TRACK 48 AUDIO
    TITLE "7:cjc124_3293"
    INDEX 01 01:24:59
  TRACK 49 AUDIO
    TITLE "0:"
    INDEX 01 01:28:59
  TRACK 50 AUDIO
    TITLE "8:cjc124_3294"
    INDEX 01 01:29:03
  TRACK 51 AUDIO
    TITLE "0:"
    INDEX 01 01:32:17
  TRACK 52 AUDIO
    TITLE "7:cjc124_3295"
    INDEX 01 01:32:55
  TRACK 53 AUDIO
    TITLE "0:"
    INDEX 01 01:35:39
  TRACK 54 AUDIO
    TITLE "8:cjc124_3296"
    INDEX 01 01:35:55
  TRACK 55 AUDIO
    TITLE "0:"
    INDEX 01 01:38:16
  TRACK 56 AUDIO
    TITLE "7:cjc124_3297"
    INDEX 01 01:38:59
  TRACK 57 AUDIO
    TITLE "0:"
    INDEX 01 01:42:30
  TRACK 58 AUDIO
    TITLE "8:cjc124_3298"
    INDEX 01 01:42:43
  TRACK 59 AUDIO
    TITLE "0:"
    INDEX 01 01:46:06
  TRACK 60 AUDIO
    TITLE "7:cjc124_3299"
    INDEX 01 01:46:45
  TRACK 61 AUDIO
    TITLE "0:"
    INDEX 01 01:51:03
  TRACK 62 AUDIO
    TITLE "8:cjc124_3300"
    INDEX 01 01:51:19
  TRACK 63 AUDIO
    TITLE "0:"
    INDEX 01 01:54:21
  TRACK 64 AUDIO
    TITLE "7:cjc124_3301"
    INDEX 01 01:54:60
  TRACK 65 AUDIO
    TITLE "0:"
    INDEX 01 01:57:35
  TRACK 66 AUDIO
    TITLE "8:cjc124_3302"
    INDEX 01 01:57:49
  TRACK 67 AUDIO
    TITLE "0:"
    INDEX 01 01:59:67
